<mxfile host="Electron" modified="2024-06-04T13:36:03.201Z" agent="Mozilla/5.0 (Windows NT 10.0; Win64; x64) AppleWebKit/537.36 (KHTML, like Gecko) draw.io/22.1.2 Chrome/114.0.5735.289 Electron/25.9.4 Safari/537.36" etag="fyXqv0X-sfnFp00PyH2E" version="22.1.2" type="device">
  <diagram id="gt3lBvSoh7cNVAPEU_ak" name="FLOW">
    <mxGraphModel dx="1036" dy="654" grid="1" gridSize="10" guides="1" tooltips="1" connect="1" arrows="1" fold="1" page="1" pageScale="1" pageWidth="850" pageHeight="1100" math="0" shadow="0">
      <root>
        <mxCell id="0" />
        <mxCell id="1" parent="0" />
        <mxCell id="39" style="edgeStyle=none;html=1;entryX=0;entryY=0.5;entryDx=0;entryDy=0;strokeWidth=2;" parent="1" source="37" target="38" edge="1">
          <mxGeometry relative="1" as="geometry" />
        </mxCell>
        <mxCell id="37" value="PASSWORD&lt;br&gt;GENERATOR" style="rounded=0;whiteSpace=wrap;html=1;strokeWidth=2;glass=0;" parent="1" vertex="1">
          <mxGeometry x="120" y="415" width="120" height="50" as="geometry" />
        </mxCell>
        <mxCell id="41" style="edgeStyle=none;html=1;endArrow=classic;endFill=1;strokeWidth=2;entryX=0;entryY=0.5;entryDx=0;entryDy=0;" parent="1" source="38" edge="1" target="40">
          <mxGeometry relative="1" as="geometry">
            <mxPoint x="570" y="440" as="targetPoint" />
          </mxGeometry>
        </mxCell>
        <mxCell id="38" value="PBKDF2 &lt;br&gt;HMAC - WHIRLPOOL" style="rounded=0;whiteSpace=wrap;html=1;strokeWidth=2;" parent="1" vertex="1">
          <mxGeometry x="355" y="410" width="140" height="60" as="geometry" />
        </mxCell>
        <mxCell id="55" style="edgeStyle=none;html=1;entryX=0.5;entryY=0;entryDx=0;entryDy=0;strokeWidth=2;" parent="1" source="40" target="60" edge="1">
          <mxGeometry relative="1" as="geometry">
            <mxPoint x="650" y="525.662042025862" as="targetPoint" />
            <Array as="points" />
          </mxGeometry>
        </mxCell>
        <mxCell id="40" value="Serpent&lt;br&gt;XTS Mode" style="rounded=0;whiteSpace=wrap;html=1;strokeWidth=2;" parent="1" vertex="1">
          <mxGeometry x="600.5" y="410" width="100" height="60" as="geometry" />
        </mxCell>
        <mxCell id="48" style="edgeStyle=none;html=1;entryX=0;entryY=0.5;entryDx=0;entryDy=0;exitX=1;exitY=0.5;exitDx=0;exitDy=0;exitPerimeter=0;strokeWidth=2;" parent="1" source="67" target="50" edge="1">
          <mxGeometry relative="1" as="geometry">
            <mxPoint x="290" y="307.5" as="targetPoint" />
            <mxPoint x="310" y="307.5" as="sourcePoint" />
          </mxGeometry>
        </mxCell>
        <mxCell id="77" value="Extract Header" style="edgeLabel;html=1;align=center;verticalAlign=middle;resizable=0;points=[];" parent="48" vertex="1" connectable="0">
          <mxGeometry x="-0.3331" relative="1" as="geometry">
            <mxPoint x="13" y="-10" as="offset" />
          </mxGeometry>
        </mxCell>
        <mxCell id="oTycU4fjFZvGJYK4ItPz-80" style="edgeStyle=orthogonalEdgeStyle;rounded=1;orthogonalLoop=1;jettySize=auto;html=1;exitX=0.5;exitY=1;exitDx=0;exitDy=0;entryX=0.5;entryY=0;entryDx=0;entryDy=0;strokeWidth=2;" edge="1" parent="1" source="50" target="38">
          <mxGeometry relative="1" as="geometry" />
        </mxCell>
        <mxCell id="50" value="Salt&lt;br&gt;512 bits" style="rounded=0;whiteSpace=wrap;html=1;strokeWidth=2;" parent="1" vertex="1">
          <mxGeometry x="430" y="280" width="50" height="40" as="geometry" />
        </mxCell>
        <mxCell id="54" style="edgeStyle=none;html=1;entryX=0.5;entryY=0;entryDx=0;entryDy=0;strokeWidth=2;" parent="1" source="51" target="40" edge="1">
          <mxGeometry relative="1" as="geometry">
            <Array as="points">
              <mxPoint x="650" y="300" />
            </Array>
          </mxGeometry>
        </mxCell>
        <mxCell id="51" value="Cipher Text&lt;br&gt;128 bits" style="rounded=0;whiteSpace=wrap;html=1;strokeWidth=2;" parent="1" vertex="1">
          <mxGeometry x="480" y="280" width="80" height="40" as="geometry" />
        </mxCell>
        <mxCell id="64" style="edgeStyle=none;html=1;exitX=0.5;exitY=1;exitDx=0;exitDy=0;fontSize=14;strokeWidth=2;" parent="1" source="60" target="63" edge="1">
          <mxGeometry relative="1" as="geometry">
            <Array as="points">
              <mxPoint x="651" y="665" />
            </Array>
          </mxGeometry>
        </mxCell>
        <mxCell id="65" style="edgeStyle=none;html=1;fontSize=14;entryX=0.5;entryY=1;entryDx=0;entryDy=0;strokeWidth=2;" parent="1" source="60" target="37" edge="1">
          <mxGeometry relative="1" as="geometry">
            <mxPoint x="290" y="450" as="targetPoint" />
            <Array as="points">
              <mxPoint x="180" y="560" />
            </Array>
          </mxGeometry>
        </mxCell>
        <mxCell id="60" value="P.Contains(&quot;VERA&quot;) ?" style="rhombus;whiteSpace=wrap;html=1;fontSize=14;strokeWidth=2;" parent="1" vertex="1">
          <mxGeometry x="553.75" y="520" width="193.5" height="80" as="geometry" />
        </mxCell>
        <mxCell id="63" value="Correct Pass" style="shape=parallelogram;perimeter=parallelogramPerimeter;whiteSpace=wrap;html=1;fixedSize=1;fontSize=14;strokeWidth=2;" parent="1" vertex="1">
          <mxGeometry x="365" y="640" width="120" height="50" as="geometry" />
        </mxCell>
        <mxCell id="67" value="VeraCrypt&#39;s&lt;br&gt;Volume" style="whiteSpace=wrap;html=1;shape=mxgraph.basic.document;strokeWidth=2;" parent="1" vertex="1">
          <mxGeometry x="254.5" y="252.5" width="71" height="95" as="geometry" />
        </mxCell>
        <mxCell id="oTycU4fjFZvGJYK4ItPz-82" value="Password" style="text;html=1;strokeColor=none;fillColor=none;align=center;verticalAlign=middle;whiteSpace=wrap;rounded=0;" vertex="1" parent="1">
          <mxGeometry x="260" y="410" width="60" height="30" as="geometry" />
        </mxCell>
        <mxCell id="oTycU4fjFZvGJYK4ItPz-83" value="Key" style="text;html=1;strokeColor=none;fillColor=none;align=center;verticalAlign=middle;whiteSpace=wrap;rounded=0;" vertex="1" parent="1">
          <mxGeometry x="510" y="410" width="60" height="30" as="geometry" />
        </mxCell>
        <mxCell id="oTycU4fjFZvGJYK4ItPz-84" value="C" style="text;html=1;strokeColor=none;fillColor=none;align=center;verticalAlign=middle;whiteSpace=wrap;rounded=0;" vertex="1" parent="1">
          <mxGeometry x="650.5" y="347.5" width="29.5" height="30" as="geometry" />
        </mxCell>
        <mxCell id="oTycU4fjFZvGJYK4ItPz-85" value="P" style="text;html=1;strokeColor=none;fillColor=none;align=center;verticalAlign=middle;whiteSpace=wrap;rounded=0;" vertex="1" parent="1">
          <mxGeometry x="650.5" y="480" width="29.5" height="30" as="geometry" />
        </mxCell>
        <mxCell id="oTycU4fjFZvGJYK4ItPz-86" value="False" style="text;html=1;strokeColor=none;fillColor=none;align=center;verticalAlign=middle;whiteSpace=wrap;rounded=0;" vertex="1" parent="1">
          <mxGeometry x="500" y="520" width="50" height="40" as="geometry" />
        </mxCell>
        <mxCell id="oTycU4fjFZvGJYK4ItPz-88" value="True" style="text;html=1;strokeColor=none;fillColor=none;align=center;verticalAlign=middle;whiteSpace=wrap;rounded=0;" vertex="1" parent="1">
          <mxGeometry x="600.5" y="600" width="49.5" height="40" as="geometry" />
        </mxCell>
      </root>
    </mxGraphModel>
  </diagram>
</mxfile>
